{"glyphs":{"0":{"ha":794,"x_min":66,"x_max":728,"o":"m 265 0 q 126 60 185 0 q 66 198 66 119 l 66 728 q 126 866 66 807 q 265 926 185 926 l 529 926 q 668 866 608 926 q 728 728 728 807 l 728 198 q 668 60 728 119 q 529 0 608 0 l 265 0 m 198 198 q 218 152 198 172 q 265 132 238 132 l 529 132 q 575 152 556 132 q 595 198 595 172 l 595 556 l 198 198 m 198 370 l 595 728 q 575 774 595 754 q 529 794 556 794 l 265 794 q 218 774 238 794 q 198 728 198 754 l 198 370 z "},"1":{"ha":794,"x_min":198,"x_max":595,"o":"m 265 661 q 218 681 238 661 q 198 728 198 701 q 218 774 198 754 l 351 906 q 397 926 370 926 q 443 906 423 926 q 463 860 463 886 l 463 132 l 529 132 q 575 112 556 132 q 595 66 595 93 q 575 20 595 40 q 529 0 556 0 l 265 0 q 218 20 238 0 q 198 66 198 40 q 218 112 198 93 q 265 132 238 132 l 331 132 l 331 704 l 311 681 q 265 661 291 661 z "},"2":{"ha":794,"x_min":66,"x_max":728,"o":"m 132 661 q 86 681 106 661 q 66 728 66 701 q 126 866 66 807 q 265 926 185 926 l 529 926 q 668 866 608 926 q 728 728 728 807 l 728 595 q 708 549 728 569 l 288 132 l 661 132 q 708 112 688 132 q 728 66 728 93 q 708 20 728 40 q 661 0 688 0 l 132 0 q 86 20 106 0 q 66 66 66 40 q 86 112 66 93 l 595 624 l 595 728 q 575 774 595 754 q 529 794 556 794 l 265 794 q 218 774 238 794 q 198 728 198 754 q 179 681 198 701 q 132 661 159 661 z "},"3":{"ha":794,"x_min":66,"x_max":728,"o":"m 529 0 l 265 0 q 126 60 185 0 q 66 198 66 119 q 86 245 66 225 q 132 265 106 265 q 179 245 159 265 q 198 198 198 225 q 218 152 198 172 q 265 132 238 132 l 529 132 q 575 152 556 132 q 595 198 595 172 l 595 331 q 575 377 595 357 q 529 397 556 397 l 397 397 q 351 417 370 397 q 331 463 331 437 q 351 509 331 489 q 397 529 370 529 l 529 529 q 575 549 556 529 q 595 595 595 569 l 595 728 q 575 774 595 754 q 529 794 556 794 l 265 794 q 218 774 238 794 q 198 728 198 754 q 179 681 198 701 q 132 661 159 661 q 86 681 106 661 q 66 728 66 701 q 126 866 66 807 q 265 926 185 926 l 529 926 q 668 866 608 926 q 728 728 728 807 l 728 595 q 668 456 728 516 q 728 331 728 410 l 728 198 q 668 60 728 119 q 529 0 608 0 z "},"4":{"ha":794,"x_min":66,"x_max":728,"o":"m 198 397 l 463 397 l 463 860 q 483 906 463 886 q 529 926 503 926 q 575 906 556 926 q 595 860 595 886 l 595 397 l 661 397 q 708 377 688 397 q 728 331 728 357 q 708 284 728 304 q 661 265 688 265 l 595 265 l 595 66 q 575 20 595 40 q 529 0 556 0 q 483 20 503 0 q 463 66 463 40 l 463 265 l 132 265 q 86 284 106 265 q 66 331 66 304 l 66 728 q 86 774 66 754 q 132 794 106 794 q 179 774 159 794 q 198 728 198 754 l 198 397 z "},"5":{"ha":794,"x_min":66,"x_max":728,"o":"m 132 397 q 86 417 106 397 q 66 463 66 437 l 66 860 q 86 906 66 886 q 132 926 106 926 l 661 926 q 708 906 688 926 q 728 860 728 886 q 708 813 728 833 q 661 794 688 794 l 198 794 l 198 529 l 529 529 q 668 470 608 529 q 728 331 728 410 l 728 198 q 668 60 728 119 q 529 0 608 0 l 132 0 q 86 20 106 0 q 66 66 66 40 q 86 112 66 93 q 132 132 106 132 l 529 132 q 575 152 556 132 q 595 198 595 172 l 595 331 q 575 377 595 357 q 529 397 556 397 l 132 397 z "},"6":{"ha":794,"x_min":66,"x_max":728,"o":"m 265 0 q 126 60 185 0 q 66 198 66 119 l 66 728 q 126 866 66 807 q 265 926 185 926 l 529 926 q 575 906 556 926 q 595 860 595 886 q 575 813 595 833 q 529 794 556 794 l 265 794 q 218 774 238 794 q 198 728 198 754 l 198 529 l 529 529 q 668 476 608 529 q 728 331 728 423 l 728 198 q 668 60 728 119 q 529 0 608 0 l 265 0 m 198 397 l 198 198 q 218 152 198 172 q 265 132 238 132 l 529 132 q 575 152 556 132 q 595 198 595 172 l 595 331 q 575 377 595 357 q 529 397 556 397 l 198 397 z "},"7":{"ha":794,"x_min":66,"x_max":728,"o":"m 132 0 q 86 20 106 0 q 66 66 66 40 q 86 112 66 93 l 595 624 l 595 794 l 132 794 q 86 813 106 794 q 66 860 66 833 q 86 906 66 886 q 132 926 106 926 l 661 926 q 708 906 688 926 q 728 860 728 886 l 728 595 q 708 549 728 569 l 179 20 q 132 0 159 0 z "},"8":{"ha":794,"x_min":66,"x_max":728,"o":"m 66 198 l 66 331 q 126 470 66 410 q 66 595 66 516 l 66 728 q 126 866 66 807 q 265 926 185 926 l 529 926 q 668 866 608 926 q 728 728 728 807 l 728 595 q 668 456 728 516 q 728 331 728 410 l 728 198 q 668 60 728 119 q 529 0 608 0 l 265 0 q 126 60 185 0 q 66 198 66 119 m 529 529 q 575 549 556 529 q 595 595 595 569 l 595 728 q 575 774 595 754 q 529 794 556 794 l 265 794 q 218 774 238 794 q 198 728 198 754 l 198 595 q 218 549 198 569 q 265 529 238 529 l 529 529 m 595 331 q 575 377 595 357 q 529 397 556 397 l 265 397 q 218 377 238 397 q 198 331 198 357 l 198 198 q 218 152 198 172 q 265 132 238 132 l 529 132 q 575 152 556 132 q 595 198 595 172 l 595 331 z "},"9":{"ha":794,"x_min":66,"x_max":728,"o":"m 529 926 q 668 866 608 926 q 728 728 728 807 l 728 198 q 668 60 728 119 q 529 0 608 0 l 132 0 q 86 20 106 0 q 66 66 66 40 q 86 112 66 93 q 132 132 106 132 l 529 132 q 575 152 556 132 q 595 198 595 172 l 595 397 l 265 397 q 126 450 185 397 q 66 595 66 503 l 66 728 q 126 866 66 807 q 265 926 185 926 l 529 926 m 595 529 l 595 728 q 575 774 595 754 q 529 794 556 794 l 265 794 q 218 774 238 794 q 198 728 198 754 l 198 595 q 218 549 198 569 q 265 529 238 529 l 595 529 z "},"A":{"ha":794,"x_min":66,"x_max":728,"o":"m 132 0 q 86 20 106 0 q 66 66 66 40 l 66 728 q 126 866 66 807 q 265 926 185 926 l 529 926 q 668 866 608 926 q 728 728 728 807 l 728 66 q 708 20 728 40 q 661 0 688 0 q 615 20 635 0 q 595 66 595 40 l 595 397 l 198 397 l 198 66 q 179 20 198 40 q 132 0 159 0 m 198 529 l 595 529 l 595 728 q 575 774 595 754 q 529 794 556 794 l 265 794 q 218 774 238 794 q 198 728 198 754 l 198 529 z "},".":{"ha":794,"x_min":198,"x_max":463,"o":"m 265 265 l 397 265 q 443 245 423 265 q 463 198 463 225 l 463 66 q 443 20 463 40 q 397 0 423 0 l 265 0 q 218 20 238 0 q 198 66 198 40 l 198 198 q 218 245 198 225 q 265 265 238 265 z "},",":{"ha":794,"x_min":198,"x_max":463,"o":"m 265 265 l 397 265 q 443 245 423 265 q 463 198 463 225 l 463 66 q 443 20 463 40 l 311 -112 q 265 -132 291 -132 q 218 -112 238 -132 q 198 -66 198 -93 l 198 198 q 218 245 198 225 q 265 265 238 265 z "},":":{"ha":794,"x_min":198,"x_max":463,"o":"m 265 794 l 397 794 q 443 774 423 794 q 463 728 463 754 l 463 595 q 443 549 463 569 q 397 529 423 529 l 265 529 q 218 549 238 529 q 198 595 198 569 l 198 728 q 218 774 198 754 q 265 794 238 794 m 265 265 l 397 265 q 443 245 423 265 q 463 198 463 225 l 463 66 q 443 20 463 40 q 397 0 423 0 l 265 0 q 218 20 238 0 q 198 66 198 40 l 198 198 q 218 245 198 225 q 265 265 238 265 z "},";":{"ha":794,"x_min":198,"x_max":463,"o":"m 265 794 l 397 794 q 443 774 423 794 q 463 728 463 754 l 463 595 q 443 549 463 569 q 397 529 423 529 l 265 529 q 218 549 238 529 q 198 595 198 569 l 198 728 q 218 774 198 754 q 265 794 238 794 m 265 265 l 397 265 q 443 245 423 265 q 463 198 463 225 l 463 66 q 443 20 463 40 l 311 -112 q 265 -132 291 -132 q 218 -112 238 -132 q 198 -66 198 -93 l 198 198 q 218 245 198 225 q 265 265 238 265 z "},"!":{"ha":794,"x_min":198,"x_max":463,"o":"m 265 926 l 397 926 q 443 906 423 926 q 463 860 463 886 l 463 463 q 443 417 463 437 q 397 397 423 397 l 265 397 q 218 417 238 397 q 198 463 198 437 l 198 860 q 218 906 198 886 q 265 926 238 926 m 265 265 l 397 265 q 443 245 423 265 q 463 198 463 225 l 463 66 q 443 20 463 40 q 397 0 423 0 l 265 0 q 218 20 238 0 q 198 66 198 40 l 198 198 q 218 245 198 225 q 265 265 238 265 z "}," ":{"ha":794,"x_min":0,"x_max":0,"o":""},"B":{"ha":794,"x_min":66,"x_max":728,"o":"m 132 0 q 86 20 106 0 q 66 66 66 40 l 66 860 q 86 906 66 886 q 132 926 106 926 l 529 926 q 668 866 608 926 q 728 728 728 807 l 728 595 q 668 456 728 516 q 728 331 728 410 l 728 198 q 668 60 728 119 q 529 0 608 0 l 132 0 m 198 529 l 529 529 q 575 549 556 529 q 595 595 595 569 l 595 728 q 575 774 595 754 q 529 794 556 794 l 198 794 l 198 529 m 198 132 l 529 132 q 575 152 556 132 q 595 198 595 172 l 595 331 q 575 377 595 357 q 529 397 556 397 l 198 397 l 198 132 z "},"\"":{"ha":794,"x_min":198,"x_max":595,"o":"m 463 860 q 483 906 463 886 q 529 926 503 926 q 575 906 556 926 q 595 860 595 886 l 595 728 q 575 681 595 701 q 529 661 556 661 q 483 681 503 661 q 463 728 463 701 l 463 860 m 198 860 q 218 906 198 886 q 265 926 238 926 q 311 906 291 926 q 331 860 331 886 l 331 728 q 311 681 331 701 q 265 661 291 661 q 218 681 238 661 q 198 728 198 701 l 198 860 z "},"'":{"ha":794,"x_min":331,"x_max":463,"o":"m 331 860 q 351 906 331 886 q 397 926 370 926 q 443 906 423 926 q 463 860 463 886 l 463 728 q 443 681 463 701 q 397 661 423 661 q 351 681 370 661 q 331 728 331 701 l 331 860 z "},"#":{"ha":794,"x_min":66,"x_max":728,"o":"m 529 0 q 483 20 503 0 q 463 66 463 40 l 463 265 l 331 265 l 331 66 q 311 20 331 40 q 265 0 291 0 q 218 20 238 0 q 198 66 198 40 l 198 265 l 132 265 q 86 284 106 265 q 66 331 66 304 q 86 377 66 357 q 132 397 106 397 l 198 397 l 198 529 l 132 529 q 86 549 106 529 q 66 595 66 569 q 86 642 66 622 q 132 661 106 661 l 198 661 l 198 860 q 218 906 198 886 q 265 926 238 926 q 311 906 291 926 q 331 860 331 886 l 331 661 l 463 661 l 463 860 q 483 906 463 886 q 529 926 503 926 q 575 906 556 926 q 595 860 595 886 l 595 661 l 661 661 q 708 642 688 661 q 728 595 728 622 q 708 549 728 569 q 661 529 688 529 l 595 529 l 595 397 l 661 397 q 708 377 688 397 q 728 331 728 357 q 708 284 728 304 q 661 265 688 265 l 595 265 l 595 66 q 575 20 595 40 q 529 0 556 0 m 331 529 l 331 397 l 463 397 l 463 529 l 331 529 z "},"$":{"ha":794,"x_min":66,"x_max":728,"o":"m 397 0 q 351 20 370 0 q 331 66 331 40 l 331 132 l 132 132 q 86 152 106 132 q 66 198 66 172 q 86 245 66 225 q 132 265 106 265 l 331 265 l 331 397 l 265 397 q 126 456 185 397 q 66 595 66 516 q 126 734 66 675 q 265 794 185 794 l 331 794 l 331 860 q 351 906 331 886 q 397 926 370 926 q 443 906 423 926 q 463 860 463 886 l 463 794 l 661 794 q 708 774 688 794 q 728 728 728 754 q 708 681 728 701 q 661 661 688 661 l 463 661 l 463 529 l 529 529 q 668 470 608 529 q 728 331 728 410 q 668 192 728 251 q 529 132 608 132 l 463 132 l 463 66 q 443 20 463 40 q 397 0 423 0 m 198 595 q 218 549 198 569 q 265 529 238 529 l 331 529 l 331 661 l 265 661 q 218 642 238 661 q 198 595 198 622 m 529 397 l 463 397 l 463 265 l 529 265 q 575 284 556 265 q 595 331 595 304 q 575 377 595 357 q 529 397 556 397 z "},"%":{"ha":794,"x_min":66,"x_max":728,"o":"m 529 0 q 483 20 503 0 q 463 66 463 40 l 463 198 q 483 245 463 225 q 529 265 503 265 l 661 265 q 708 245 688 265 q 728 198 728 225 l 728 66 q 708 20 728 40 q 661 0 688 0 l 529 0 m 132 661 q 86 681 106 661 q 66 728 66 701 l 66 860 q 86 906 66 886 q 132 926 106 926 l 265 926 q 311 906 291 926 q 331 860 331 886 l 331 728 q 311 681 331 701 q 265 661 291 661 l 132 661 m 132 0 q 86 20 106 0 q 66 66 66 40 l 66 198 q 86 245 66 225 l 595 757 l 595 860 q 615 906 595 886 q 661 926 635 926 q 708 906 688 926 q 728 860 728 886 l 728 728 q 708 681 728 701 l 198 175 l 198 66 q 179 20 198 40 q 132 0 159 0 z "},"&":{"ha":794,"x_min":66,"x_max":728,"o":"m 661 0 q 615 20 635 0 l 526 106 l 443 20 q 397 0 423 0 l 265 0 q 126 60 185 0 q 66 198 66 119 l 66 331 q 86 377 66 357 l 172 463 l 86 549 q 66 595 66 569 l 66 728 q 126 866 66 807 q 265 926 185 926 q 403 866 344 926 q 463 728 463 807 l 463 595 q 443 549 463 569 l 354 463 l 443 377 l 529 291 l 615 377 q 661 397 635 397 q 708 377 688 397 q 728 331 728 357 q 708 284 728 304 l 622 201 l 708 112 q 728 66 728 93 q 708 20 728 40 q 661 0 688 0 m 198 624 l 265 558 l 331 624 l 331 728 q 311 774 331 754 q 265 794 291 794 q 218 774 238 794 q 198 728 198 754 l 198 624 m 437 198 l 265 370 l 198 302 l 198 198 q 218 152 198 172 q 265 132 238 132 l 370 132 l 437 198 z "},"(":{"ha":794,"x_min":331,"x_max":595,"o":"m 529 0 q 390 60 450 0 q 331 198 331 119 l 331 728 q 390 866 331 807 q 529 926 450 926 q 575 906 556 926 q 595 860 595 886 q 575 813 595 833 q 529 794 556 794 q 483 774 503 794 q 463 728 463 754 l 463 198 q 483 152 463 172 q 529 132 503 132 q 575 112 556 132 q 595 66 595 93 q 575 20 595 40 q 529 0 556 0 z "},")":{"ha":794,"x_min":198,"x_max":463,"o":"m 265 0 q 218 20 238 0 q 198 66 198 40 q 218 112 198 93 q 265 132 238 132 q 311 152 291 132 q 331 198 331 172 l 331 728 q 311 774 331 754 q 265 794 291 794 q 218 813 238 794 q 198 860 198 833 q 218 906 198 886 q 265 926 238 926 q 403 866 344 926 q 463 728 463 807 l 463 198 q 403 60 463 119 q 265 0 344 0 z "},"*":{"ha":794,"x_min":66,"x_max":728,"o":"m 265 265 q 218 284 238 265 q 198 331 198 304 q 218 377 198 357 l 299 529 l 132 529 q 86 549 106 529 q 66 595 66 569 q 86 642 66 622 q 132 661 106 661 l 299 661 l 218 813 q 198 860 198 833 q 218 906 198 886 q 265 926 238 926 q 311 906 291 926 l 397 733 l 483 906 q 529 926 503 926 q 575 906 556 926 q 595 860 595 886 q 575 813 595 833 l 495 661 l 661 661 q 708 642 688 661 q 728 595 728 622 q 708 549 728 569 q 661 529 688 529 l 495 529 l 575 377 q 595 331 595 357 q 575 284 595 304 q 529 265 556 265 q 483 284 503 265 l 397 458 l 311 284 q 265 265 291 265 z "},"+":{"ha":794,"x_min":66,"x_max":728,"o":"m 397 132 q 351 152 370 132 q 331 198 331 172 l 331 397 l 132 397 q 86 417 106 397 q 66 463 66 437 q 86 509 66 489 q 132 529 106 529 l 331 529 l 331 728 q 351 774 331 754 q 397 794 370 794 q 443 774 423 794 q 463 728 463 754 l 463 529 l 661 529 q 708 509 688 529 q 728 463 728 489 q 708 417 728 437 q 661 397 688 397 l 463 397 l 463 198 q 443 152 463 172 q 397 132 423 132 z "},"-":{"ha":794,"x_min":66,"x_max":728,"o":"m 132 397 q 86 417 106 397 q 66 463 66 437 q 86 509 66 489 q 132 529 106 529 l 661 529 q 708 509 688 529 q 728 463 728 489 q 708 417 728 437 q 661 397 688 397 l 132 397 z "},"/":{"ha":794,"x_min":66,"x_max":728,"o":"m 132 0 q 86 20 106 0 q 66 66 66 40 l 66 198 q 86 245 66 225 l 595 757 l 595 860 q 615 906 595 886 q 661 926 635 926 q 708 906 688 926 q 728 860 728 886 l 728 728 q 708 681 728 701 l 198 175 l 198 66 q 179 20 198 40 q 132 0 159 0 z "},"\\":{"ha":794,"x_min":66,"x_max":728,"o":"m 661 0 q 615 20 635 0 q 595 66 595 40 l 595 175 l 86 681 q 66 728 66 701 l 66 860 q 86 906 66 886 q 132 926 106 926 q 179 906 159 926 q 198 860 198 886 l 198 757 l 708 245 q 728 198 728 225 l 728 66 q 708 20 728 40 q 661 0 688 0 z "},"<":{"ha":794,"x_min":66,"x_max":595,"o":"m 222 463 l 575 112 q 595 66 595 93 q 575 20 595 40 q 529 0 556 0 q 483 20 503 0 l 86 417 q 66 463 66 437 q 86 509 66 489 l 483 906 q 529 926 503 926 q 575 906 556 926 q 595 860 595 886 q 575 813 595 833 l 222 463 z "},">":{"ha":794,"x_min":198,"x_max":728,"o":"m 571 463 l 218 813 q 198 860 198 833 q 218 906 198 886 q 265 926 238 926 q 311 906 291 926 l 708 509 q 728 463 728 489 q 708 417 728 437 l 311 20 q 265 0 291 0 q 218 20 238 0 q 198 66 198 40 q 218 112 198 93 l 571 463 z "},"=":{"ha":794,"x_min":66,"x_max":728,"o":"m 132 529 q 86 549 106 529 q 66 595 66 569 q 86 642 66 622 q 132 661 106 661 l 661 661 q 708 642 688 661 q 728 595 728 622 q 708 549 728 569 q 661 529 688 529 l 132 529 m 132 265 q 86 284 106 265 q 66 331 66 304 q 86 377 66 357 q 132 397 106 397 l 661 397 q 708 377 688 397 q 728 331 728 357 q 708 284 728 304 q 661 265 688 265 l 132 265 z "},"?":{"ha":794,"x_min":66,"x_max":728,"o":"m 397 0 q 351 20 370 0 q 331 66 331 40 q 351 112 331 93 q 397 132 370 132 q 443 112 423 132 q 463 66 463 93 q 443 20 463 40 q 397 0 423 0 m 397 265 q 351 284 370 265 q 331 331 331 304 q 351 377 331 357 l 595 624 l 595 728 q 575 774 595 754 q 529 794 556 794 l 265 794 q 218 774 238 794 q 198 728 198 754 q 179 681 198 701 q 132 661 159 661 q 86 681 106 661 q 66 728 66 701 q 126 866 66 807 q 265 926 185 926 l 529 926 q 668 866 608 926 q 728 728 728 807 l 728 595 q 708 549 728 569 l 443 284 q 397 265 423 265 z "},"@":{"ha":794,"x_min":66,"x_max":728,"o":"m 529 265 q 390 324 450 265 q 331 463 331 384 q 390 602 331 542 q 529 661 450 661 l 595 661 l 595 728 q 575 774 595 754 q 529 794 556 794 l 265 794 q 218 774 238 794 q 198 728 198 754 l 198 198 q 218 152 198 172 q 265 132 238 132 l 661 132 q 708 112 688 132 q 728 66 728 93 q 708 20 728 40 q 661 0 688 0 l 265 0 q 126 60 185 0 q 66 198 66 119 l 66 728 q 126 866 66 807 q 265 926 185 926 l 529 926 q 668 866 608 926 q 728 728 728 807 l 728 463 q 668 324 728 384 q 529 265 608 265 m 529 529 q 483 509 503 529 q 463 463 463 489 q 483 417 463 437 q 529 397 503 397 q 575 417 556 397 q 595 463 595 437 q 575 509 595 489 q 529 529 556 529 z "},"[":{"ha":794,"x_min":331,"x_max":595,"o":"m 529 0 l 397 0 q 351 20 370 0 q 331 66 331 40 l 331 860 q 351 906 331 886 q 397 926 370 926 l 529 926 q 575 906 556 926 q 595 860 595 886 q 575 813 595 833 q 529 794 556 794 l 463 794 l 463 132 l 529 132 q 575 112 556 132 q 595 66 595 93 q 575 20 595 40 q 529 0 556 0 z "},"]":{"ha":794,"x_min":198,"x_max":463,"o":"m 265 0 q 218 20 238 0 q 198 66 198 40 q 218 112 198 93 q 265 132 238 132 l 331 132 l 331 794 l 265 794 q 218 813 238 794 q 198 860 198 833 q 218 906 198 886 q 265 926 238 926 l 397 926 q 443 906 423 926 q 463 860 463 886 l 463 66 q 443 20 463 40 q 397 0 423 0 l 265 0 z "},"^":{"ha":794,"x_min":66,"x_max":728,"o":"m 132 529 q 86 549 106 529 q 66 595 66 569 q 86 642 66 622 l 351 906 q 397 926 370 926 q 443 906 423 926 l 708 642 q 728 595 728 622 q 708 549 728 569 q 661 529 688 529 q 615 549 635 529 l 397 770 l 179 549 q 132 529 159 529 z "},"_":{"ha":794,"x_min":66,"x_max":728,"o":"m 132 -132 q 86 -112 106 -132 q 66 -66 66 -93 q 86 -20 66 -40 q 132 0 106 0 l 661 0 q 708 -20 688 0 q 728 -66 728 -40 q 708 -112 728 -93 q 661 -132 688 -132 l 132 -132 z "},"`":{"ha":794,"x_min":331,"x_max":595,"o":"m 351 813 q 331 860 331 833 q 351 906 331 886 q 397 926 370 926 q 443 906 423 926 l 575 774 q 595 728 595 754 q 575 681 595 701 q 529 661 556 661 q 483 681 503 661 l 351 813 z "},"}":{"ha":794,"x_min":198,"x_max":595,"o":"m 265 0 q 218 20 238 0 q 198 66 198 40 q 218 112 198 93 q 265 132 238 132 q 311 152 291 132 q 331 198 331 172 l 331 331 q 390 456 331 410 q 331 595 331 516 l 331 728 q 311 774 331 754 q 265 794 291 794 q 218 813 238 794 q 198 860 198 833 q 218 906 198 886 q 265 926 238 926 q 403 866 344 926 q 463 728 463 807 l 463 595 q 484 548 463 569 q 529 529 505 526 q 575 509 556 529 q 595 463 595 489 q 575 417 595 437 q 529 397 556 397 q 483 377 503 397 q 463 331 463 357 l 463 198 q 403 60 463 119 q 265 0 344 0 z "},"{":{"ha":794,"x_min":198,"x_max":595,"o":"m 529 0 q 390 60 450 0 q 331 198 331 119 l 331 331 q 311 377 331 357 q 265 397 291 397 q 218 417 238 397 q 198 463 198 437 q 218 509 198 489 q 265 529 238 529 q 310 548 288 526 q 331 595 331 569 l 331 728 q 390 866 331 807 q 529 926 450 926 q 575 906 556 926 q 595 860 595 886 q 575 813 595 833 q 529 794 556 794 q 483 774 503 794 q 463 728 463 754 l 463 595 q 403 456 463 516 q 463 331 463 410 l 463 198 q 483 152 463 172 q 529 132 503 132 q 575 112 556 132 q 595 66 595 93 q 575 20 595 40 q 529 0 556 0 z "},"|":{"ha":794,"x_min":331,"x_max":463,"o":"m 397 0 q 351 20 370 0 q 331 66 331 40 l 331 860 q 351 906 331 886 q 397 926 370 926 q 443 906 423 926 q 463 860 463 886 l 463 66 q 443 20 463 40 q 397 0 423 0 z "},"~":{"ha":794,"x_min":66,"x_max":728,"o":"m 132 661 q 86 681 106 661 q 66 728 66 701 q 126 865 66 804 q 265 926 185 926 q 403 866 344 926 q 463 728 463 807 q 483 681 463 701 q 529 661 503 661 q 575 681 556 661 q 595 728 595 701 q 615 774 595 754 q 661 794 635 794 q 708 774 688 794 q 728 728 728 754 q 668 589 728 648 q 529 529 608 529 q 390 589 450 529 q 331 728 331 648 q 311 774 331 754 q 265 794 291 794 q 218 774 238 794 q 198 728 198 754 q 179 681 198 701 q 132 661 159 661 z "},"":{"ha":794,"x_min":66,"x_max":728,"o":"m 661 926 q 708 906 688 926 q 728 860 728 886 l 728 66 q 708 20 728 40 q 661 0 688 0 l 132 0 q 86 20 106 0 q 66 66 66 40 l 66 860 q 86 906 66 886 q 132 926 106 926 l 661 926 z "},"C":{"ha":794,"x_min":66,"x_max":728,"o":"m 265 0 q 126 60 185 0 q 66 198 66 119 l 66 728 q 126 866 66 807 q 265 926 185 926 l 529 926 q 668 866 608 926 q 728 728 728 807 q 708 681 728 701 q 661 661 688 661 q 615 681 635 661 q 595 728 595 701 q 575 774 595 754 q 529 794 556 794 l 265 794 q 218 774 238 794 q 198 728 198 754 l 198 198 q 218 152 198 172 q 265 132 238 132 l 529 132 q 575 152 556 132 q 595 198 595 172 q 615 245 595 225 q 661 265 635 265 q 708 245 688 265 q 728 198 728 225 q 668 60 728 119 q 529 0 608 0 l 265 0 z "},"D":{"ha":794,"x_min":66,"x_max":728,"o":"m 132 0 q 86 20 106 0 q 66 66 66 40 l 66 860 q 86 906 66 886 q 132 926 106 926 l 529 926 q 668 866 608 926 q 728 728 728 807 l 728 198 q 668 60 728 119 q 529 0 608 0 l 132 0 m 595 198 l 595 728 q 575 774 595 754 q 529 794 556 794 l 198 794 l 198 132 l 529 132 q 575 152 556 132 q 595 198 595 172 z "},"E":{"ha":794,"x_min":66,"x_max":728,"o":"m 529 397 l 198 397 l 198 132 l 661 132 q 708 112 688 132 q 728 66 728 93 q 708 20 728 40 q 661 0 688 0 l 132 0 q 86 20 106 0 q 66 66 66 40 l 66 860 q 86 906 66 886 q 132 926 106 926 l 661 926 q 708 906 688 926 q 728 860 728 886 q 708 813 728 833 q 661 794 688 794 l 198 794 l 198 529 l 529 529 q 575 509 556 529 q 595 463 595 489 q 575 417 595 437 q 529 397 556 397 z "},"F":{"ha":794,"x_min":66,"x_max":728,"o":"m 529 397 l 198 397 l 198 132 q 179 20 198 40 q 132 0 159 0 q 86 20 106 0 q 66 66 66 40 l 66 860 q 86 906 66 886 q 132 926 106 926 l 661 926 q 708 906 688 926 q 728 860 728 886 q 708 813 728 833 q 661 794 688 794 l 198 794 l 198 529 l 529 529 q 575 509 556 529 q 595 463 595 489 q 575 417 595 437 q 529 397 556 397 z "},"G":{"ha":794,"x_min":66,"x_max":728,"o":"m 265 0 q 126 60 185 0 q 66 198 66 119 l 66 728 q 126 866 66 807 q 265 926 185 926 l 529 926 q 668 866 608 926 q 728 728 728 807 q 708 681 728 701 q 661 661 688 661 q 615 681 635 661 q 595 728 595 701 q 575 774 595 754 q 529 794 556 794 l 265 794 q 218 774 238 794 q 198 728 198 754 l 198 198 q 218 152 198 172 q 265 132 238 132 l 529 132 q 575 152 556 132 q 595 198 595 172 l 595 397 l 529 397 q 483 417 503 397 q 463 463 463 437 q 483 509 463 489 q 529 529 503 529 l 661 529 q 708 509 688 529 q 728 463 728 489 l 728 198 q 668 60 728 119 q 529 0 608 0 l 265 0 z "},"H":{"ha":794,"x_min":66,"x_max":728,"o":"m 728 860 l 728 66 q 708 20 728 40 q 661 0 688 0 q 615 20 635 0 q 595 66 595 40 l 595 397 l 198 397 l 198 66 q 179 20 198 40 q 132 0 159 0 q 86 20 106 0 q 66 66 66 40 l 66 860 q 86 906 66 886 q 132 926 106 926 q 179 906 159 926 q 198 860 198 886 l 198 529 l 595 529 l 595 860 q 615 906 595 886 q 661 926 635 926 q 708 906 688 926 q 728 860 728 886 z "},"I":{"ha":794,"x_min":198,"x_max":595,"o":"m 265 0 q 218 20 238 0 q 198 66 198 40 q 218 112 198 93 q 265 132 238 132 l 331 132 l 331 794 l 265 794 q 218 813 238 794 q 198 860 198 833 q 218 906 198 886 q 265 926 238 926 l 529 926 q 575 906 556 926 q 595 860 595 886 q 575 813 595 833 q 529 794 556 794 l 463 794 l 463 132 l 529 132 q 575 112 556 132 q 595 66 595 93 q 575 20 595 40 q 529 0 556 0 l 265 0 z "},"J":{"ha":794,"x_min":66,"x_max":728,"o":"m 529 0 l 265 0 q 126 60 185 0 q 66 198 66 119 q 86 245 66 225 q 132 265 106 265 q 179 245 159 265 q 198 198 198 225 q 218 152 198 172 q 265 132 238 132 l 529 132 q 575 152 556 132 q 595 198 595 172 l 595 860 q 615 906 595 886 q 661 926 635 926 q 708 906 688 926 q 728 860 728 886 l 728 198 q 668 60 728 119 q 529 0 608 0 z "},"K":{"ha":794,"x_min":66,"x_max":728,"o":"m 354 463 l 708 112 q 728 66 728 93 q 708 20 728 40 q 661 0 688 0 q 615 20 635 0 l 265 373 l 198 307 l 198 66 q 179 20 198 40 q 132 0 159 0 q 86 20 106 0 q 66 66 66 40 l 66 860 q 86 906 66 886 q 132 926 106 926 q 179 906 159 926 q 198 860 198 886 l 198 492 l 615 906 q 661 926 635 926 q 708 906 688 926 q 728 860 728 886 q 708 813 728 833 l 354 463 z "},"L":{"ha":794,"x_min":66,"x_max":728,"o":"m 198 132 l 661 132 q 708 112 688 132 q 728 66 728 93 q 708 20 728 40 q 661 0 688 0 l 132 0 q 86 20 106 0 q 66 66 66 40 l 66 860 q 86 906 66 886 q 132 926 106 926 q 179 906 159 926 q 198 860 198 886 l 198 132 z "},"M":{"ha":794,"x_min":66,"x_max":728,"o":"m 132 0 q 86 20 106 0 q 66 66 66 40 l 66 860 q 86 906 66 886 q 132 926 106 926 q 179 906 159 926 l 397 688 l 615 906 q 661 926 635 926 q 708 906 688 926 q 728 860 728 886 l 728 66 q 708 20 728 40 q 661 0 688 0 q 615 20 635 0 q 595 66 595 40 l 595 704 l 443 549 q 397 529 423 529 q 351 549 370 529 l 198 701 l 198 66 q 179 20 198 40 q 132 0 159 0 z "},"N":{"ha":794,"x_min":66,"x_max":728,"o":"m 132 0 q 86 20 106 0 q 66 66 66 40 l 66 860 q 86 906 66 886 q 132 926 106 926 q 179 906 159 926 l 595 489 l 595 860 q 615 906 595 886 q 661 926 635 926 q 708 906 688 926 q 728 860 728 886 l 728 66 q 708 20 728 40 q 661 0 688 0 q 615 20 635 0 q 595 66 595 40 l 595 304 l 198 701 l 198 66 q 179 20 198 40 q 132 0 159 0 z "},"O":{"ha":794,"x_min":66,"x_max":728,"o":"m 265 0 q 126 60 185 0 q 66 198 66 119 l 66 728 q 126 866 66 807 q 265 926 185 926 l 529 926 q 668 866 608 926 q 728 728 728 807 l 728 198 q 668 60 728 119 q 529 0 608 0 l 265 0 m 595 728 q 575 774 595 754 q 529 794 556 794 l 265 794 q 218 774 238 794 q 198 728 198 754 l 198 198 q 218 152 198 172 q 265 132 238 132 l 529 132 q 575 152 556 132 q 595 198 595 172 l 595 728 z "},"P":{"ha":794,"x_min":66,"x_max":728,"o":"m 198 529 l 529 529 q 575 549 556 529 q 595 595 595 569 l 595 728 q 575 774 595 754 q 529 794 556 794 l 198 794 l 198 529 m 198 66 q 179 20 198 40 q 132 0 159 0 q 86 20 106 0 q 66 66 66 40 l 66 860 q 86 906 66 886 q 132 926 106 926 l 529 926 q 668 866 608 926 q 728 728 728 807 l 728 595 q 668 456 728 516 q 529 397 608 397 l 198 397 l 198 66 z "},"Q":{"ha":794,"x_min":66,"x_max":728,"o":"m 595 728 q 575 774 595 754 q 529 794 556 794 l 265 794 q 218 774 238 794 q 198 728 198 754 l 198 198 q 218 152 198 172 q 265 132 238 132 l 370 132 l 437 198 l 351 284 q 331 331 331 304 q 351 377 331 357 q 397 397 370 397 q 443 377 423 397 l 511 310 l 595 394 l 595 728 m 728 331 q 708 284 728 304 l 619 198 l 708 112 q 728 66 728 93 q 708 20 728 40 q 661 0 688 0 q 615 20 635 0 l 526 106 l 443 20 q 397 0 423 0 l 265 0 q 126 60 185 0 q 66 198 66 119 l 66 728 q 126 866 66 807 q 265 926 185 926 l 529 926 q 668 866 608 926 q 728 728 728 807 l 728 331 z "},"R":{"ha":794,"x_min":66,"x_max":728,"o":"m 198 529 l 529 529 q 575 549 556 529 q 595 595 595 569 l 595 728 q 575 774 595 754 q 529 794 556 794 l 198 794 l 198 529 m 661 0 q 615 20 635 0 q 595 66 595 40 l 595 331 q 575 377 595 357 q 529 397 556 397 l 198 397 l 198 66 q 179 20 198 40 q 132 0 159 0 q 86 20 106 0 q 66 66 66 40 l 66 860 q 86 906 66 886 q 132 926 106 926 l 529 926 q 668 866 608 926 q 728 728 728 807 l 728 595 q 668 456 728 516 q 728 331 728 410 l 728 66 q 708 20 728 40 q 661 0 688 0 z "},"S":{"ha":794,"x_min":66,"x_max":728,"o":"m 265 397 q 119 450 172 397 q 66 595 66 503 l 66 728 q 119 866 66 807 q 265 926 172 926 l 529 926 q 668 866 608 926 q 728 728 728 807 q 708 681 728 701 q 661 661 688 661 q 615 681 635 661 q 595 728 595 701 q 575 774 595 754 q 529 794 556 794 l 265 794 q 218 774 238 794 q 198 728 198 754 l 198 595 q 218 549 198 569 q 265 529 238 529 l 529 529 q 668 470 608 529 q 728 331 728 410 l 728 198 q 668 53 728 106 q 529 0 608 0 l 265 0 q 126 60 185 0 q 66 198 66 119 q 86 245 66 225 q 132 265 106 265 q 179 245 159 265 q 198 198 198 225 q 218 152 198 172 q 265 132 238 132 l 529 132 q 575 152 556 132 q 595 198 595 172 l 595 331 q 575 377 595 357 q 529 397 556 397 l 265 397 z "},"T":{"ha":794,"x_min":66,"x_max":728,"o":"m 132 794 q 86 813 106 794 q 66 860 66 833 q 86 906 66 886 q 132 926 106 926 l 661 926 q 708 906 688 926 q 728 860 728 886 q 708 813 728 833 q 661 794 688 794 l 463 794 l 463 66 q 443 20 463 40 q 397 0 423 0 q 351 20 370 0 q 331 66 331 40 l 331 794 l 132 794 z "},"U":{"ha":794,"x_min":66,"x_max":728,"o":"m 529 0 l 265 0 q 126 60 185 0 q 66 198 66 119 l 66 860 q 86 906 66 886 q 132 926 106 926 q 179 906 159 926 q 198 860 198 886 l 198 198 q 218 152 198 172 q 265 132 238 132 l 529 132 q 575 152 556 132 q 595 198 595 172 l 595 860 q 615 906 595 886 q 661 926 635 926 q 708 906 688 926 q 728 860 728 886 l 728 198 q 668 60 728 119 q 529 0 608 0 z "},"V":{"ha":794,"x_min":66,"x_max":728,"o":"m 397 0 q 351 20 370 0 l 86 284 q 66 331 66 304 l 66 860 q 86 906 66 886 q 132 926 106 926 q 179 906 159 926 q 198 860 198 886 l 198 394 l 397 196 l 595 394 l 595 860 q 615 906 595 886 q 661 926 635 926 q 708 906 688 926 q 728 860 728 886 l 728 331 q 708 284 728 304 l 443 20 q 397 0 423 0 z "},"W":{"ha":794,"x_min":66,"x_max":728,"o":"m 529 0 q 390 60 450 0 q 265 0 344 0 q 126 60 185 0 q 66 198 66 119 l 66 860 q 86 906 66 886 q 132 926 106 926 q 179 906 159 926 q 198 860 198 886 l 198 198 q 218 152 198 172 q 265 132 238 132 q 311 152 291 132 q 331 198 331 172 l 331 463 q 351 509 331 489 q 397 529 370 529 q 443 509 423 529 q 463 463 463 489 l 463 198 q 483 152 463 172 q 529 132 503 132 q 575 152 556 132 q 595 198 595 172 l 595 860 q 615 906 595 886 q 661 926 635 926 q 708 906 688 926 q 728 860 728 886 l 728 198 q 668 60 728 119 q 529 0 608 0 z "},"X":{"ha":794,"x_min":66,"x_max":728,"o":"m 198 172 l 198 66 q 179 20 198 40 q 132 0 159 0 q 86 20 106 0 q 66 66 66 40 l 66 198 q 86 245 66 225 l 304 463 l 86 681 q 66 728 66 701 l 66 860 q 86 906 66 886 q 132 926 106 926 q 179 906 159 926 q 198 860 198 886 l 198 754 l 397 556 l 595 754 l 595 860 q 615 906 595 886 q 661 926 635 926 q 708 906 688 926 q 728 860 728 886 l 728 728 q 708 681 728 701 l 487 463 l 708 245 q 728 198 728 225 l 728 66 q 708 20 728 40 q 661 0 688 0 q 615 20 635 0 q 595 66 595 40 l 595 172 l 397 370 l 198 172 z "},"Y":{"ha":794,"x_min":66,"x_max":728,"o":"m 331 437 l 86 681 q 66 728 66 701 l 66 860 q 86 906 66 886 q 132 926 106 926 q 179 906 159 926 q 198 860 198 886 l 198 754 l 397 556 l 595 754 l 595 860 q 615 906 595 886 q 661 926 635 926 q 708 906 688 926 q 728 860 728 886 l 728 728 q 708 681 728 701 l 463 439 l 463 66 q 443 20 463 40 q 397 0 423 0 q 351 20 370 0 q 331 66 331 40 l 331 437 z "},"Z":{"ha":794,"x_min":66,"x_max":728,"o":"m 66 198 q 86 245 66 225 l 595 757 l 595 794 l 132 794 q 86 813 106 794 q 66 860 66 833 q 86 906 66 886 q 132 926 106 926 l 661 926 q 708 906 688 926 q 728 860 728 886 l 728 728 q 708 681 728 701 l 198 175 l 198 132 l 661 132 q 708 112 688 132 q 728 66 728 93 q 708 20 728 40 q 661 0 688 0 l 132 0 q 86 20 106 0 q 66 66 66 40 l 66 198 z "},"a":{"ha":794,"x_min":66,"x_max":728,"o":"m 265 0 q 126 60 185 0 q 66 198 66 119 q 126 337 66 278 q 265 397 185 397 l 595 397 l 595 463 q 575 509 595 489 q 529 529 556 529 l 265 529 q 218 549 238 529 q 198 595 198 569 q 218 642 198 622 q 265 661 238 661 l 529 661 q 668 602 608 661 q 728 463 728 542 l 728 66 q 708 20 728 40 q 661 0 688 0 l 265 0 m 595 265 l 265 265 q 218 245 238 265 q 198 198 198 225 q 218 152 198 172 q 265 132 238 132 l 595 132 l 595 265 z "},"b":{"ha":794,"x_min":66,"x_max":728,"o":"m 529 529 l 198 529 l 198 132 l 529 132 q 575 152 556 132 q 595 198 595 172 l 595 463 q 575 509 595 489 q 529 529 556 529 m 132 0 q 86 20 106 0 q 66 66 66 40 l 66 860 q 86 906 66 886 q 132 926 106 926 q 179 906 159 926 q 198 860 198 886 l 198 661 l 529 661 q 668 602 608 661 q 728 463 728 542 l 728 198 q 668 60 728 119 q 529 0 608 0 l 132 0 z "},"c":{"ha":794,"x_min":66,"x_max":728,"o":"m 265 0 q 126 60 185 0 q 66 198 66 119 l 66 463 q 126 602 66 542 q 265 661 185 661 l 529 661 q 668 602 608 661 q 728 463 728 542 q 708 417 728 437 q 661 397 688 397 q 615 417 635 397 q 595 463 595 437 q 575 509 595 489 q 529 529 556 529 l 265 529 q 218 509 238 529 q 198 463 198 489 l 198 198 q 218 152 198 172 q 265 132 238 132 l 529 132 q 575 152 556 132 q 595 198 595 172 q 615 245 595 225 q 661 265 635 265 q 708 245 688 265 q 728 198 728 225 q 668 60 728 119 q 529 0 608 0 l 265 0 z "},"d":{"ha":794,"x_min":66,"x_max":728,"o":"m 265 529 q 218 509 238 529 q 198 463 198 489 l 198 198 q 218 152 198 172 q 265 132 238 132 l 595 132 l 595 529 l 265 529 m 661 0 l 265 0 q 126 60 185 0 q 66 198 66 119 l 66 463 q 126 602 66 542 q 265 661 185 661 l 595 661 l 595 860 q 615 906 595 886 q 661 926 635 926 q 708 906 688 926 q 728 860 728 886 l 728 66 q 708 20 728 40 q 661 0 688 0 z "},"e":{"ha":794,"x_min":66,"x_max":728,"o":"m 265 0 q 126 60 185 0 q 66 198 66 119 l 66 463 q 126 602 66 542 q 265 661 185 661 l 529 661 q 668 602 608 661 q 728 463 728 542 l 728 331 q 708 284 728 304 q 661 265 688 265 l 198 265 l 198 198 q 218 152 198 172 q 265 132 238 132 l 529 132 q 575 112 556 132 q 595 66 595 93 q 575 20 595 40 q 529 0 556 0 l 265 0 m 198 397 l 595 397 l 595 463 q 575 509 595 489 q 529 529 556 529 l 265 529 q 218 509 238 529 q 198 463 198 489 l 198 397 z "},"f":{"ha":794,"x_min":198,"x_max":728,"o":"m 529 529 l 463 529 l 463 66 q 443 20 463 40 q 397 0 423 0 q 351 20 370 0 q 331 66 331 40 l 331 529 l 265 529 q 218 549 238 529 q 198 595 198 569 q 218 642 198 622 q 265 661 238 661 l 331 661 l 331 728 q 390 866 331 807 q 529 926 450 926 l 661 926 q 708 906 688 926 q 728 860 728 886 q 708 813 728 833 q 661 794 688 794 l 529 794 q 483 774 503 794 q 463 728 463 754 l 463 661 l 529 661 q 575 642 556 661 q 595 595 595 622 q 575 549 595 569 q 529 529 556 529 z "},"g":{"ha":794,"x_min":66,"x_max":728,"o":"m 265 132 q 126 192 185 132 q 66 331 66 251 l 66 463 q 126 602 66 542 q 265 661 185 661 l 661 661 q 708 642 688 661 q 728 595 728 622 l 728 66 q 668 -73 728 -13 q 529 -132 608 -132 l 265 -132 q 218 -112 238 -132 q 198 -66 198 -93 q 218 -20 198 -40 q 265 0 238 0 l 529 0 q 575 20 556 0 q 595 66 595 40 l 595 132 l 265 132 m 595 265 l 595 529 l 265 529 q 218 509 238 529 q 198 463 198 489 l 198 331 q 218 284 198 304 q 265 265 238 265 l 595 265 z "},"h":{"ha":794,"x_min":66,"x_max":728,"o":"m 66 860 q 86 906 66 886 q 132 926 106 926 q 179 906 159 926 q 198 860 198 886 l 198 661 l 529 661 q 668 602 608 661 q 728 463 728 542 l 728 66 q 708 20 728 40 q 661 0 688 0 q 615 20 635 0 q 595 66 595 40 l 595 463 q 575 509 595 489 q 529 529 556 529 l 198 529 l 198 66 q 179 20 198 40 q 132 0 159 0 q 86 20 106 0 q 66 66 66 40 l 66 860 z "},"i":{"ha":794,"x_min":198,"x_max":595,"o":"m 331 529 l 265 529 q 218 549 238 529 q 198 595 198 569 q 218 642 198 622 q 265 661 238 661 l 397 661 q 443 642 423 661 q 463 595 463 622 l 463 132 l 529 132 q 575 112 556 132 q 595 66 595 93 q 575 20 595 40 q 529 0 556 0 l 265 0 q 218 20 238 0 q 198 66 198 40 q 218 112 198 93 q 265 132 238 132 l 331 132 l 331 529 m 397 794 q 351 813 370 794 q 331 860 331 833 q 351 906 331 886 q 397 926 370 926 q 443 906 423 926 q 463 860 463 886 q 443 813 463 833 q 397 794 423 794 z "},"j":{"ha":794,"x_min":66,"x_max":595,"o":"m 529 794 q 483 813 503 794 q 463 860 463 833 q 483 906 463 886 q 529 926 503 926 q 575 906 556 926 q 595 860 595 886 q 575 813 595 833 q 529 794 556 794 m 397 529 q 351 549 370 529 q 331 595 331 569 q 351 642 331 622 q 397 661 370 661 l 529 661 q 575 642 556 661 q 595 595 595 622 l 595 66 q 536 -73 595 -13 q 397 -132 476 -132 l 265 -132 q 126 -73 185 -132 q 66 66 66 -13 q 86 112 66 93 q 132 132 106 132 q 179 112 159 132 q 198 66 198 93 q 218 20 198 40 q 265 0 238 0 l 397 0 q 443 20 423 0 q 463 66 463 40 l 463 529 l 397 529 z "},"k":{"ha":794,"x_min":198,"x_max":728,"o":"m 661 0 q 615 20 635 0 l 397 238 l 331 172 l 331 66 q 311 20 331 40 q 265 0 291 0 q 218 20 238 0 q 198 66 198 40 l 198 860 q 218 906 198 886 q 265 926 238 926 q 311 906 291 926 q 331 860 331 886 l 331 360 l 615 642 q 661 661 635 661 q 708 642 688 661 q 728 595 728 622 q 708 549 728 569 l 489 333 l 708 112 q 728 66 728 93 q 708 20 728 40 q 661 0 688 0 z "},"l":{"ha":794,"x_min":198,"x_max":595,"o":"m 265 0 q 218 20 238 0 q 198 66 198 40 q 218 112 198 93 q 265 132 238 132 l 331 132 l 331 794 l 265 794 q 218 813 238 794 q 198 860 198 833 q 218 906 198 886 q 265 926 238 926 l 397 926 q 443 906 423 926 q 463 860 463 886 l 463 132 l 529 132 q 575 112 556 132 q 595 66 595 93 q 575 20 595 40 q 529 0 556 0 l 265 0 z "},"m":{"ha":794,"x_min":66,"x_max":728,"o":"m 198 529 l 198 66 q 179 20 198 40 q 132 0 159 0 q 86 20 106 0 q 66 66 66 40 l 66 595 q 86 642 66 622 q 132 661 106 661 l 265 661 q 403 602 344 661 q 529 661 450 661 q 668 602 608 661 q 728 463 728 542 l 728 66 q 708 20 728 40 q 661 0 688 0 q 615 20 635 0 q 595 66 595 40 l 595 463 q 575 509 595 489 q 529 529 556 529 q 483 509 503 529 q 463 463 463 489 l 463 66 q 443 20 463 40 q 397 0 423 0 q 351 20 370 0 q 331 66 331 40 l 331 463 q 311 509 331 489 q 265 529 291 529 l 198 529 z "},"n":{"ha":794,"x_min":66,"x_max":728,"o":"m 198 529 l 198 66 q 179 20 198 40 q 132 0 159 0 q 86 20 106 0 q 66 66 66 40 l 66 595 q 86 642 66 622 q 132 661 106 661 l 529 661 q 668 602 608 661 q 728 463 728 542 l 728 66 q 708 20 728 40 q 661 0 688 0 q 615 20 635 0 q 595 66 595 40 l 595 463 q 575 509 595 489 q 529 529 556 529 l 198 529 z "},"o":{"ha":794,"x_min":66,"x_max":728,"o":"m 265 0 q 126 60 185 0 q 66 198 66 119 l 66 463 q 126 602 66 542 q 265 661 185 661 l 529 661 q 668 602 608 661 q 728 463 728 542 l 728 198 q 668 60 728 119 q 529 0 608 0 l 265 0 m 595 463 q 575 509 595 489 q 529 529 556 529 l 265 529 q 218 509 238 529 q 198 463 198 489 l 198 198 q 218 152 198 172 q 265 132 238 132 l 529 132 q 575 152 556 132 q 595 198 595 172 l 595 463 z "},"p":{"ha":794,"x_min":66,"x_max":728,"o":"m 529 132 l 198 132 l 198 -66 q 179 -112 198 -93 q 132 -132 159 -132 q 86 -114 106 -132 q 66 -66 66 -95 l 66 595 q 86 642 66 622 q 132 661 106 661 l 529 661 q 668 602 608 661 q 728 463 728 542 l 728 331 q 668 192 728 251 q 529 132 608 132 m 198 265 l 529 265 q 575 284 556 265 q 595 331 595 304 l 595 463 q 575 509 595 489 q 529 529 556 529 l 198 529 l 198 265 z "},"q":{"ha":794,"x_min":66,"x_max":728,"o":"m 265 132 q 126 192 185 132 q 66 331 66 251 l 66 463 q 126 602 66 542 q 265 661 185 661 l 661 661 q 708 642 688 661 q 728 595 728 622 l 728 -66 q 708 -114 728 -95 q 661 -132 688 -132 q 615 -112 635 -132 q 595 -66 595 -93 l 595 132 l 265 132 m 595 265 l 595 529 l 265 529 q 218 509 238 529 q 198 463 198 489 l 198 331 q 218 284 198 304 q 265 265 238 265 l 595 265 z "},"r":{"ha":794,"x_min":198,"x_max":728,"o":"m 331 529 l 331 66 q 311 20 331 40 q 265 0 291 0 q 218 20 238 0 q 198 66 198 40 l 198 595 q 218 642 198 622 q 265 661 238 661 l 529 661 q 668 602 608 661 q 728 463 728 542 q 708 417 728 437 q 661 397 688 397 q 615 417 635 397 q 595 463 595 437 q 575 509 595 489 q 529 529 556 529 l 331 529 z "},"s":{"ha":794,"x_min":66,"x_max":728,"o":"m 265 265 q 126 324 185 265 q 66 463 66 384 q 126 602 66 542 q 265 661 185 661 l 661 661 q 708 642 688 661 q 728 595 728 622 q 708 549 728 569 q 661 529 688 529 q 265 529 291 529 q 218 509 238 529 q 198 463 198 489 q 218 417 198 437 q 265 397 238 397 l 529 397 q 668 337 608 397 q 728 198 728 278 q 668 60 728 119 q 529 0 608 0 l 132 0 q 86 20 106 0 q 66 66 66 40 q 86 112 66 93 q 132 132 106 132 l 529 132 q 575 152 556 132 q 595 198 595 172 q 575 245 595 225 q 526 265 556 265 l 265 265 z "},"t":{"ha":794,"x_min":198,"x_max":728,"o":"m 265 529 q 218 549 238 529 q 198 595 198 569 q 218 642 198 622 q 265 661 238 661 l 331 661 l 331 860 q 351 906 331 886 q 397 926 370 926 q 443 906 423 926 q 463 860 463 886 l 463 661 l 661 661 q 708 642 688 661 q 728 595 728 622 q 708 549 728 569 q 661 529 688 529 l 463 529 l 463 198 q 483 152 463 172 q 529 132 503 132 l 661 132 q 708 112 688 132 q 728 66 728 93 q 708 20 728 40 q 661 0 688 0 l 529 0 q 390 60 450 0 q 331 198 331 119 l 331 529 l 265 529 z "},"u":{"ha":794,"x_min":66,"x_max":728,"o":"m 595 132 l 595 595 q 615 642 595 622 q 661 661 635 661 q 708 642 688 661 q 728 595 728 622 l 728 66 q 708 20 728 40 q 661 0 688 0 l 265 0 q 126 60 185 0 q 66 198 66 119 l 66 595 q 86 642 66 622 q 132 661 106 661 q 179 642 159 661 q 198 595 198 622 l 198 198 q 218 152 198 172 q 265 132 238 132 l 595 132 z "},"v":{"ha":794,"x_min":66,"x_max":728,"o":"m 397 0 q 351 20 370 0 l 86 284 q 66 331 66 304 l 66 595 q 86 642 66 622 q 132 661 106 661 q 179 642 159 661 q 198 595 198 622 l 198 394 l 397 196 l 595 394 l 595 595 q 615 642 595 622 q 661 661 635 661 q 708 642 688 661 q 728 595 728 622 l 728 331 q 708 284 728 304 l 443 20 q 397 0 423 0 z "},"w":{"ha":794,"x_min":66,"x_max":728,"o":"m 529 0 q 390 60 450 0 q 265 0 344 0 q 126 60 185 0 q 66 198 66 119 l 66 595 q 86 642 66 622 q 132 661 106 661 q 179 642 159 661 q 198 595 198 622 l 198 198 q 218 152 198 172 q 265 132 238 132 q 311 152 291 132 q 331 198 331 172 l 331 463 q 351 509 331 489 q 397 529 370 529 q 443 509 423 529 q 463 463 463 489 l 463 198 q 483 152 463 172 q 529 132 503 132 q 575 152 556 132 q 595 198 595 172 l 595 595 q 615 642 595 622 q 661 661 635 661 q 708 642 688 661 q 728 595 728 622 l 728 198 q 668 60 728 119 q 529 0 608 0 z "},"x":{"ha":794,"x_min":66,"x_max":728,"o":"m 397 241 l 179 20 q 132 0 159 0 q 86 20 106 0 q 66 66 66 40 q 86 112 66 93 l 302 331 l 86 549 q 66 595 66 569 q 86 642 66 622 q 132 661 106 661 q 179 642 159 661 l 397 426 l 615 642 q 661 661 635 661 q 708 642 688 661 q 728 595 728 622 q 708 549 728 569 l 487 331 l 708 112 q 728 66 728 93 q 708 20 728 40 q 661 0 688 0 q 615 20 635 0 l 397 241 z "},"y":{"ha":794,"x_min":66,"x_max":728,"o":"m 265 132 q 126 192 185 132 q 66 331 66 251 l 66 595 q 86 642 66 622 q 132 661 106 661 q 179 642 159 661 q 198 595 198 622 l 198 331 q 218 284 198 304 q 265 265 238 265 l 595 265 l 595 595 q 615 642 595 622 q 661 661 635 661 q 708 642 688 661 q 728 595 728 622 l 728 66 q 668 -73 728 -13 q 529 -132 608 -132 l 265 -132 q 218 -112 238 -132 q 198 -66 198 -93 q 218 -20 198 -40 q 265 0 238 0 l 529 0 q 575 20 556 0 q 595 66 595 40 l 595 132 l 265 132 z "},"z":{"ha":794,"x_min":66,"x_max":728,"o":"m 132 0 q 86 20 106 0 q 66 66 66 40 q 86 112 66 93 l 500 529 l 132 529 q 86 549 106 529 q 66 595 66 569 q 86 642 66 622 q 132 661 106 661 l 661 661 q 708 642 688 661 q 728 595 728 622 q 708 549 728 569 l 288 132 l 661 132 q 708 112 688 132 q 728 66 728 93 q 708 20 728 40 q 661 0 688 0 l 132 0 z "}}}
